<?xml version="1.0" standalone="no"?>
<!DOCTYPE svg PUBLIC "-//W3C//DTD SVG 20010904//EN"
 "http://www.w3.org/TR/2001/REC-SVG-20010904/DTD/svg10.dtd">
<svg version="1.0" xmlns="http://www.w3.org/2000/svg"
 width="235.000000pt" height="207.000000pt" viewBox="0 0 235.000000 207.000000"
 preserveAspectRatio="xMidYMid meet">

<g transform="translate(0.000000,207.000000) scale(0.100000,-0.100000)"
fill="#ec6952" stroke="none">
<path d="M1450 2028 c0 -18 14 -64 30 -103 17 -38 30 -70 30 -71 0 -1 -24 11
-52 26 -69 37 -218 80 -278 80 -107 0 -100 -65 20 -193 62 -67 114 -99 261
-162 115 -49 134 -69 132 -144 0 -32 -6 -69 -13 -81 l-12 -22 -36 35 c-145
138 -301 204 -503 214 -231 11 -468 -53 -600 -162 -129 -108 -199 -275 -199
-473 l0 -80 -35 -6 c-25 -5 -42 -16 -54 -37 l-18 -30 -13 31 c-7 16 -16 30
-20 30 -4 0 -19 -22 -33 -49 -74 -136 10 -307 157 -319 48 -4 92 9 157 45 3 2
14 -14 24 -36 20 -46 49 -76 96 -99 34 -17 34 -17 31 -81 -4 -75 6 -89 78
-120 56 -24 210 -51 293 -51 56 0 58 -1 64 -31 3 -17 17 -37 30 -46 55 -37
233 -69 233 -43 0 15 -29 71 -48 93 -14 16 -13 17 17 17 37 0 58 32 47 74 -5
21 -16 29 -51 38 -25 7 -45 16 -45 20 0 14 69 85 125 128 49 38 62 43 118 46
106 7 204 34 300 82 174 87 311 257 324 402 5 52 -2 90 -34 176 -3 7 19 14 61
18 81 9 160 30 192 50 33 22 84 114 84 153 0 27 -16 48 -108 141 -116 118
-124 122 -239 122 l-51 0 -40 73 c-84 152 -207 285 -321 346 -78 41 -101 41
-101 -1z m-441 -1434 c31 -39 26 -62 -23 -105 -26 -23 -47 -52 -51 -69 -7 -33
-8 -33 -54 -24 -51 11 -81 46 -81 98 0 38 5 48 33 72 70 59 142 71 176 28z"/>
</g>
</svg>
